inDegrees=no
num_controls=7
num_derivatives=13
num_iterations=87
num_multipliers=7
num_parameters=0
num_slacks=7
num_states=26
objective=0.516956
objective_accelerations=0.039789
objective_balance=0.002261
objective_effort=0.044502
objective_height=0.418741
objective_ligament=0.011664
solver_duration=1148.869754
status=Solve_Succeeded
success=true
DataType=double
version=3
OpenSimVersion=4.5
endheader
time	/jointset/ground_pelvis/pelvis_tilt/value	/jointset/ground_pelvis/pelvis_tx/value	/jointset/ground_pelvis/pelvis_ty/value	/jointset/hip_l/hip_flexion_l/value	/jointset/hip_l/hip_adduction_l/value	/jointset/hip_l/hip_rotation_l/value	/jointset/back/lumbar_extension/value	/jointset/patellofemoral_l/patellar_flexion_l/value	/jointset/knee_l/knee_flexion_l/value	/jointset/knee_l/knee_adduction_l/value	/jointset/knee_l/knee_rotation_l/value	/jointset/ankle_l/ankle_angle_l/value	/jointset/subtalar_l/subtalar_angle_l/value	/jointset/ground_pelvis/pelvis_tilt/speed	/jointset/ground_pelvis/pelvis_tx/speed	/jointset/ground_pelvis/pelvis_ty/speed	/jointset/hip_l/hip_flexion_l/speed	/jointset/hip_l/hip_adduction_l/speed	/jointset/hip_l/hip_rotation_l/speed	/jointset/back/lumbar_extension/speed	/jointset/patellofemoral_l/patellar_flexion_l/speed	/jointset/knee_l/knee_flexion_l/speed	/jointset/knee_l/knee_adduction_l/speed	/jointset/knee_l/knee_rotation_l/speed	/jointset/ankle_l/ankle_angle_l/speed	/jointset/subtalar_l/subtalar_angle_l/speed	/forceset/tau_hip_flexion_l	/forceset/tau_hip_adduction_l	/forceset/tau_hip_rotation_l	/forceset/tau_knee_flexion_l	/forceset/tau_ankle_angle_l	/forceset/tau_subtalar_angle_l	/forceset/tau_lumbar_extension	lambda_cid13_p0	lambda_cid13_p1	lambda_cid13_p2	lambda_cid13_p3	lambda_cid13_p4	lambda_cid13_p5	lambda_cid14_p0	/jointset/ground_pelvis/pelvis_tilt/accel	/jointset/ground_pelvis/pelvis_tx/accel	/jointset/ground_pelvis/pelvis_ty/accel	/jointset/hip_l/hip_flexion_l/accel	/jointset/hip_l/hip_adduction_l/accel	/jointset/hip_l/hip_rotation_l/accel	/jointset/back/lumbar_extension/accel	/jointset/patellofemoral_l/patellar_flexion_l/accel	/jointset/knee_l/knee_flexion_l/accel	/jointset/knee_l/knee_adduction_l/accel	/jointset/knee_l/knee_rotation_l/accel	/jointset/ankle_l/ankle_angle_l/accel	/jointset/subtalar_l/subtalar_angle_l/accel	gamma_cid13_p0	gamma_cid13_p1	gamma_cid13_p2	gamma_cid13_p3	gamma_cid13_p4	gamma_cid13_p5	gamma_cid14_p0
1	-0.1680993204935047	-0.09333179096464818	0.7258546685162386	1.267153821928793	-0.3284075952085202	-0.00265705677361459	-0.9599227541175112	1.157454722710034	1.15745472270844	-0.08259119765888492	-0.1744976299917867	0.1363535710368842	0.009026919572290851	0.1073723806444447	0.02710794145597656	0.06655715973184596	-0.2917280727802543	0.0006181504756225235	-0.06306997940010328	-0.002168940315201204	-0.159935935458953	-0.1599359354590245	0.002149513934649987	1.215040663015972e-05	0.01660757272229121	0.007661017753757658	-0.4052163913854627	0.03619392153117314	-0.005150601888665934	-0.2871541484060813	0.1095850348446904	0.02683409251120446	0.4383013256753217	-15.50299462902446	-8.314998814996825	0.1579036798836075	5.893240563047531	-785.959312001617	-53.53859079757424	-1.861679185637601	1.102992796265481	0.1774944418815671	1.246881847418987	-4.679319739350126	-0.0142293269805621	-1.404057889058904	0.2604733903888883	-4.086130164647226	-4.086130164647281	-0.1929125081221107	-0.006898636860632881	-0.7778171056793388	-0.2751500592883287	-9.02983821742021e-09	-8.530351222292961e-09	3.362828758831789e-08	4.563498881703287e-09	-2.173976284304415e-08	5.12881060567344e-08	-9.925586979220361e-09
1.01	-0.1669709868919692	-0.09305177354229728	0.7265823785138368	1.264003536990334	-0.3284015103021983	-0.003358131467877304	-0.9599304613213963	1.155651391531985	1.15565139153115	-0.08257819648108367	-0.1744972057807282	0.136480887851815	0.009090524365332949	0.118286743360855	0.0289042066160251	0.07897544968755239	-0.338313334910488	0.0006062224062900882	-0.07714137825386251	0.0006679199714466696	-0.2007270405816563	-0.2007270405817042	0.0004521642960391372	7.245527269378701e-05	0.008852346961933688	0.005066919723759997	-0.4045645733927518	0.03639857259725813	-0.00518382858332552	-0.286961195045446	0.1095348774174061	0.02689246915591077	0.4381386432803549	-15.49644128291635	-8.348724627353532	0.1715336119818621	5.714224526554733	-785.7540615239922	-53.58867225381854	-1.900138552389787	1.084517187430095	0.181993901811841	1.237888641942358	-4.645794510468555	0.006433473626014582	-1.408155706224985	0.3013554294128857	-4.075109126000927	-4.075109125997453	-0.1579371252131306	0.01247052065711748	-0.7748930029076732	-0.250495452210783	-1.392723966750396e-08	-1.622037960443233e-08	4.545095871270725e-08	8.997591245161083e-09	-2.701011468244261e-08	5.741870709939903e-08	-1.309182723256838e-08
1.02	-0.1657337378276414	-0.0927535331985971	0.7274339886254509	1.260387866418461	-0.3283953230724577	-0.004199815115223929	-0.959908587307158	1.153440247614728	1.153440247614645	-0.08258212698637407	-0.174496183426551	0.1365305488708043	0.009128397022604104	0.1291554732013069	0.03075252572583263	0.09133718253503705	-0.384805199465077	0.0006386151583767901	-0.09119177001524278	0.003747303522486636	-0.2414984833011219	-0.2414984833011479	-0.001236822681872076	0.0001317790314442658	0.001076413533827539	0.002514590599549087	-0.4039127554000293	0.03660322366334639	-0.005217055278018468	-0.2867682416848105	0.1094847199901219	0.02695084580062133	0.4379759608854013	-15.50041857318162	-8.380752981171765	0.1850601845748998	5.572024708871804	-785.691408328709	-53.63163212360026	-1.947825464521559	1.093866221073805	0.1879052318333614	1.235570425774634	-4.660640224221188	-0.005365162696733022	-1.399856470583112	0.3089780432675297	-4.082197683999662	-4.082197684000103	-0.1912399759821832	-0.007094858323259139	-0.7819586392290686	-0.2667962781309786	-1.788468409544426e-08	-2.490464464712913e-08	5.754527435517674e-08	1.126731903397127e-08	-3.117438891773355e-08	6.236988818535212e-08	-1.640000991500177e-08
1.03	-0.164388514841997	-0.09243641466098014	0.7284088532468957	1.256308234763205	-0.3283885909927252	-0.00518176205671354	-0.959853210723138	1.150821619464137	1.150821619464018	-0.08260300570268973	-0.1744945622861167	0.1365024828224087	0.00914100365138704	0.1398325699866771	0.03269350583402957	0.1036184146034315	-0.43105667595613	0.0007146631413676983	-0.1051843646104566	0.007518793369787566	-0.2822111278853033	-0.2822111278853475	-0.002945089182509068	0.0001909690945865879	-0.006679496391038714	1.804822987642996e-05	-0.4041478463299026	0.03698348795355776	-0.005259115756342249	-0.2861013548908803	0.1093003355160342	0.02709783482530284	0.4389045665706978	-15.55925458957	-8.44886201664681	0.2125650050987359	5.180174763973032	-786.0585998823631	-53.66911031928326	-2.00504259347564	1.046146491718026	0.2005457223666501	1.221793434145601	-4.597735767763635	0.01511694601324083	-1.396990987994627	0.4398514654847128	-4.063391043938013	-4.063391043940505	-0.1615564143940275	0.01222026591554901	-0.7708903407020447	-0.2393888608498138	-2.183253712519943e-08	-3.359905496187245e-08	6.964236188048377e-08	1.351496146997892e-08	-3.532737664686013e-08	6.730903437378774e-08	-1.970964098956869e-08
1.04	-0.1629382178716019	-0.09209921605787075	0.729506008956379	1.251768021461801	-0.3283808929997152	-0.006303240950962778	-0.9597543958385124	1.147796346228045	1.147796346227882	-0.08264115436947721	-0.1744923903795982	0.1363971610404479	0.009128983727580449	0.1501702701500146	0.03476853882432399	0.1157954001427258	-0.4769215286958454	0.0008317978130031581	-0.1190981605658339	0.01243496361800711	-0.3228275004019101	-0.3228275004019699	-0.00469081277472703	0.0002419322490282641	-0.01437473317937093	-0.002410719918373833	-0.4043829372597724	0.03736375224377286	-0.005301176234698497	-0.2854344680969502	0.109115951041948	0.02724482384998968	0.4398331722559987	-15.62877242647491	-8.515328200515793	0.2400677898419926	4.824095474196364	-786.5713697406881	-53.70030314751736	-2.072117040820657	1.025986896667282	0.2147158082528472	1.214721119954603	-4.583315473953678	0.002852175032171087	-1.384096742615814	0.5379141234507857	-4.062943270484713	-4.062943270484677	-0.1987313942983787	-0.008740240063403515	-0.7698240119222831	-0.2532414338465148	-2.478662911907811e-08	-4.181204503733798e-08	7.763082994190038e-08	1.48146239835613e-08	-3.965800022814997e-08	6.956867876678552e-08	-2.211044290006921e-08
1.05	-0.1613859673471322	-0.09174056822460443	0.7307244097299197	1.24677083348524	-0.3283717962465192	-0.007563430419912275	-0.9596010685186257	1.144365447792739	1.144365447792566	-0.08269694862724496	-0.1744897463075038	0.1362152429194668	0.009093060529323342	0.1602488919661122	0.03698622543834513	0.1278668782465836	-0.5224757010653904	0.0009983330517725534	-0.1329271117213883	0.01838636160132275	-0.3633306699902208	-0.3633306699902671	-0.006468460030571371	0.0002865720339553177	-0.02199328610194253	-0.004755967976707215	-0.4042561443201547	0.03777098788560534	-0.005351074161119508	-0.2846777908725222	0.1091023420260906	0.02740023116401034	0.4404629391015226	-15.61909843992714	-8.601639672928941	0.2733881698422753	4.373419171306401	-786.7301992436013	-53.75014782673226	-2.149445101751385	0.994156220595279	0.2290779590935244	1.200670865128113	-4.535416612194547	0.02516852711453503	-1.380423849493015	0.647131821317413	-4.040771382151007	-4.04077138214906	-0.1673589955263472	0.01103939096158344	-0.7555332555341184	-0.2224755041229543	-2.770966608058566e-08	-5.000999073032608e-08	8.549090364507042e-08	1.60846621245679e-08	-4.399417492981992e-08	7.174458872867589e-08	-2.448284389919266e-08
1.06	-0.159733859325193	-0.09135898695097482	0.7320629872264041	1.24131931408624	-0.3283607112751688	-0.0089615353099156	-0.9593835513817757	1.140530164145723	1.140530164145536	-0.08277053487843655	-0.1744866611769243	0.1359576068046387	0.009034223048023728	0.1701417696427731	0.03935522689698366	0.1398307447314681	-0.5677878131845295	0.001229441443145228	-0.1466812447756522	0.02527292700644809	-0.4037045427444015	-0.4037045427444347	-0.008249211458369363	0.0003301439465120312	-0.02951833194889521	-0.006993576526890088	-0.4041293513805371	0.03817822352744297	-0.005400972087570869	-0.283921113648094	0.1090887330102362	0.02755563847803843	0.4410927059470471	-15.62015671070792	-8.686416832330394	0.3068578811417645	3.956727728367181	-787.0363401314709	-53.79516041095099	-2.237443458197068	0.9888380687799672	0.2449787771763034	1.193198796159942	-4.534903423872466	0.01576680555281607	-1.369133122357735	0.7249476078125656	-4.037083903658718	-4.037083903658768	-0.1993522286891116	-0.008953814537498234	-0.7511225967985338	-0.2317135322164382	-3.020746886953565e-08	-5.813741722318098e-08	9.234007439726192e-08	1.675039683971449e-08	-4.742505636356516e-08	7.231033354215649e-08	-2.65987717958082e-08
